<mxfile host="65bd71144e">
    <diagram id="x5h1rFfxZw3jI9MtqW11" name="Page-1">
        <mxGraphModel dx="878" dy="607" grid="1" gridSize="10" guides="1" tooltips="1" connect="1" arrows="1" fold="1" page="1" pageScale="1" pageWidth="850" pageHeight="1100" math="0" shadow="0">
            <root>
                <mxCell id="0"/>
                <mxCell id="1" parent="0"/>
                <mxCell id="2" value="APP" style="rounded=0;whiteSpace=wrap;html=1;" vertex="1" parent="1">
                    <mxGeometry x="300" y="80" width="240" height="120" as="geometry"/>
                </mxCell>
                <mxCell id="3" value="AdminNavBar" style="rounded=0;whiteSpace=wrap;html=1;" vertex="1" parent="1">
                    <mxGeometry x="100" y="310" width="120" height="60" as="geometry"/>
                </mxCell>
                <mxCell id="5" style="edgeStyle=none;html=1;exitX=0.5;exitY=1;exitDx=0;exitDy=0;" edge="1" parent="1" source="4" target="7">
                    <mxGeometry relative="1" as="geometry">
                        <mxPoint x="375" y="410" as="targetPoint"/>
                        <mxPoint x="425" y="400" as="sourcePoint"/>
                        <Array as="points">
                            <mxPoint x="410" y="440"/>
                        </Array>
                    </mxGeometry>
                </mxCell>
                <mxCell id="4" value="QuestionList" style="rounded=0;whiteSpace=wrap;html=1;" vertex="1" parent="1">
                    <mxGeometry x="340" y="310" width="120" height="60" as="geometry"/>
                </mxCell>
                <mxCell id="6" value="QuestionForm" style="rounded=0;whiteSpace=wrap;html=1;" vertex="1" parent="1">
                    <mxGeometry x="580" y="310" width="120" height="60" as="geometry"/>
                </mxCell>
                <mxCell id="7" value="Questionitem" style="rounded=0;whiteSpace=wrap;html=1;" vertex="1" parent="1">
                    <mxGeometry x="360" y="480" width="120" height="50" as="geometry"/>
                </mxCell>
                <mxCell id="8" value="" style="endArrow=classic;html=1;exitX=0.461;exitY=1.058;exitDx=0;exitDy=0;exitPerimeter=0;" edge="1" parent="1" source="2">
                    <mxGeometry width="50" height="50" relative="1" as="geometry">
                        <mxPoint x="380" y="260" as="sourcePoint"/>
                        <mxPoint x="410" y="300" as="targetPoint"/>
                    </mxGeometry>
                </mxCell>
            </root>
        </mxGraphModel>
    </diagram>
</mxfile>